<svg width="177" height="31" fill="none" xmlns="http://www.w3.org/2000/svg"><path d="M135.863 30.91c-7.837 0-14.402-5.576-14.402-14.18 0-8.246 5.928-14.818 15.675-14.818 5.451 0 8.236 2.828 8.236 5.895v2.788h-.199c-1.433-1.314-3.979-2.43-8.236-2.43-4.137 0-7.877 2.75-7.877 7.967 0 5.975 3.302 8.604 7.44 8.604 2.188 0 2.347-.717 2.347-1.713v-3.107c0-1.155-.239-2.987-.517-3.823h3.899c2.426 0 3.739 1.593 3.739 3.704v3.704c0 4.541-2.824 7.41-10.105 7.41zm27.133-28.918c-7.678 0-13.885 6.453-13.885 14.46 0 .676.04 1.353.159 2.03-.079 1.156-1.233 3.426-1.233 3.426l2.109-2.35c2.228-2.23 5.649-3.665 7.837-4.421a14.636 14.636 0 011.592-.478l-1.035-6.294v-.04l4.854 2.63 4.893-2.55-.994 5.417 3.938 3.904-5.45.757h-.04l-2.467 4.939-2.824-5.855c-.796.119-1.552.278-2.228.477-6.326 1.713-8.753 5.298-9.111 6.015-.437.797-1.671 4.86 5.252 4.94-.478-.08-6.127-1.076-2.984-4.9.637 1.036 2.228 2.828 2.228 2.828 2.307 2.55 5.848 3.944 9.508 3.944 7.679 0 13.885-6.453 13.885-14.46-.119-7.966-6.326-14.42-14.004-14.42z" fill="#000"/><path d="M163.274 15.097l-4.813-6.732.875 5.417-3.979 3.824 7.917-2.51z" fill="url(#paint0_linear_117_2441)"/><path d="M168.208 8.405l-4.894 2.51-4.893-2.59.04.04 4.813 6.732 4.934-6.692z" fill="url(#paint1_linear_117_2441)"/><path d="M163.274 15.097l3.979-1.275.955-5.417-4.934 6.692z" fill="url(#paint2_linear_117_2441)"/><path d="M167.253 13.822l-3.979 1.275 2.427 3.386 5.491-.757-3.939-3.904z" fill="url(#paint3_linear_117_2441)"/><path d="M163.274 15.097l-2.466 3.346 2.387 4.979 2.506-4.94-2.427-3.385z" fill="url(#paint4_linear_117_2441)"/><path d="M155.357 17.606l5.451.837 2.466-3.346-7.917 2.51z" fill="url(#paint5_linear_117_2441)"/><path d="M11.537 30.194H8.633c-5.41 0-8.633-2.31-8.633-6.891V4.023C1.99 3.346 5.928 2.67 8.275 2.67h3.262c5.411 0 9.867 2.748 9.867 7.608 0 2.47-2.188 4.94-4.376 5.497 2.586.757 4.853 3.466 4.853 5.776-.08 5.855-5.092 8.644-10.344 8.644zm-.756-21.55h-1.63c-.438 0-1.314.08-1.83.16v4.78h3.262c2.466 0 3.5-.917 3.5-2.63 0-1.673-1.193-2.31-3.302-2.31zm0 9.918h-3.42v4.143c0 .757.476 1.155 1.312 1.155h2.347c2.467 0 3.422-.956 3.422-2.47 0-2.11-.915-2.828-3.66-2.828zM27.61 7.33c-2.148 0-3.859-1.634-3.859-3.665 0-2.032 1.75-3.665 3.86-3.665 2.108 0 3.858 1.633 3.858 3.665-.04 2.031-1.75 3.664-3.859 3.664zm3.462 22.864c-3.9 0-6.963-1.952-6.963-6.971V9.202h1.83c4.178 0 5.53 1.194 5.53 5.098v7.847c0 1.912.876 2.47 2.944 2.47h.876v2.19c.04 2.51-1.91 3.387-4.218 3.387zm24.388-.319c-3.263 0-4.258-1.076-4.258-4.342v-7.489c0-2.868-.955-4.142-3.461-4.142-2.148 0-3.302 1.434-3.302 4.023v11.95h-2.467c-3.143 0-4.893-1.235-4.893-4.342v-7.489c0-6.134 4.058-10.117 10.861-10.117 7.559 0 10.622 3.983 10.622 10.317v11.63H55.46zM64.132 4.74c.955-.757 2.308-1.434 3.86-1.434h.795v5.218h6.246v2.59c0 1.832-1.95 3.226-3.62 3.226h-2.626v7.728c0 1.434.875 2.31 2.307 2.31 1.75 0 2.547-.16 3.342-.478h.2v2.868c0 1.793-1.632 3.426-5.451 3.426-3.66 0-7.56-1.753-7.56-7.608V9.32c-.079-1.912 1.075-3.466 2.507-4.58zm21.364 25.733c-4.097 0-9.11-1.952-9.11-6.812 0-4.74 3.421-7.13 11.18-7.13H88.6v-.876c0-1.753-1.353-2.191-4.257-2.191-3.979 0-5.45.916-6.963 2.31h-.238v-2.59c0-2.628 2.745-5.297 8.832-5.297 5.888 0 9.747 2.987 9.747 9.281v3.306c0 7.768-2.467 9.998-10.225 9.998zm3.263-9.361h-1.472c-2.785 0-3.9.717-3.9 2.15 0 1.355.836 2.072 2.905 2.072 1.313 0 2.467-.677 2.467-2.59v-1.632zm27.849 8.763c-3.263 0-4.257-1.076-4.257-4.342v-7.489c0-2.868-.955-4.142-3.462-4.142-2.148 0-3.302 1.434-3.302 4.023v11.95h-2.466c-3.143 0-4.894-1.235-4.894-4.342v-7.489c0-6.134 4.058-10.117 10.861-10.117 7.559 0 10.623 3.983 10.623 10.317v11.63h-3.103z" fill="#000"/><defs><linearGradient id="paint0_linear_117_2441" x1="144.635" y1="12.461" x2="177.104" y2="13.823" gradientUnits="userSpaceOnUse"><stop stop-color="#F05A26"/><stop offset="1" stop-color="#FCE861"/></linearGradient><linearGradient id="paint1_linear_117_2441" x1="159.38" y1="7.028" x2="172.119" y2="16.428" gradientUnits="userSpaceOnUse"><stop stop-color="#F05A26"/><stop offset="1" stop-color="#FCE861"/></linearGradient><linearGradient id="paint2_linear_117_2441" x1="132.59" y1="-6.258" x2="161.801" y2="9.556" gradientUnits="userSpaceOnUse"><stop stop-color="#EE3F23"/><stop offset=".031" stop-color="#EE4624"/><stop offset=".263" stop-color="#F17728"/><stop offset=".483" stop-color="#F49D2B"/><stop offset=".685" stop-color="#F6B82D"/><stop offset=".863" stop-color="#F7C92F"/><stop offset=".997" stop-color="#F7CF2F"/></linearGradient><linearGradient id="paint3_linear_117_2441" x1="156.823" y1="10.163" x2="177.835" y2="23.166" gradientUnits="userSpaceOnUse"><stop offset=".079" stop-color="#FFEA14"/><stop offset=".191" stop-color="#F37B37"/><stop offset=".31" stop-color="#EC1C2B"/><stop offset=".41" stop-color="#C1294B"/><stop offset=".553" stop-color="#873B76"/><stop offset=".654" stop-color="#5A619E"/><stop offset=".758" stop-color="#3382C0"/><stop offset=".854" stop-color="#1799D9"/><stop offset=".938" stop-color="#06A8E9"/><stop offset="1" stop-color="#00ADEE"/></linearGradient><linearGradient id="paint4_linear_117_2441" x1="164.042" y1="5.28" x2="162.898" y2="24.476" gradientUnits="userSpaceOnUse"><stop offset=".079" stop-color="#FFEA14"/><stop offset=".261" stop-color="#F37B37"/><stop offset=".329" stop-color="#EC1C2B"/><stop offset=".412" stop-color="#C1294B"/><stop offset=".53" stop-color="#873B76"/><stop offset=".636" stop-color="#5A619E"/><stop offset=".746" stop-color="#3382C0"/><stop offset=".847" stop-color="#1799D9"/><stop offset=".935" stop-color="#06A8E9"/><stop offset="1" stop-color="#00ADEE"/></linearGradient><linearGradient id="paint5_linear_117_2441" x1="129.199" y1=".006" x2="158.41" y2="15.82" gradientUnits="userSpaceOnUse"><stop stop-color="#EE3F23"/><stop offset=".031" stop-color="#EE4624"/><stop offset=".263" stop-color="#F17728"/><stop offset=".483" stop-color="#F49D2B"/><stop offset=".685" stop-color="#F6B82D"/><stop offset=".863" stop-color="#F7C92F"/><stop offset=".997" stop-color="#F7CF2F"/></linearGradient></defs></svg>